<svg width="30" height="30" viewBox="0 0 30 30" fill="none" xmlns="http://www.w3.org/2000/svg">
<path d="M8.125 8.16667V20.6222C8.125 21.8046 8.125 22.3953 8.35661 22.8469C8.56034 23.2441 8.88519 23.5677 9.28503 23.7701C9.73915 24 10.3339 24 11.5217 24H17.4783C18.6661 24 19.26 24 19.7141 23.7701C20.114 23.5677 20.4399 23.2441 20.6436 22.8469C20.875 22.3958 20.875 21.8055 20.875 20.6255V8.16667M8.125 8.16667H10.25M8.125 8.16667H6M10.25 8.16667H18.75M10.25 8.16667C10.25 7.18301 10.25 6.69143 10.4118 6.30347C10.6274 5.78619 11.0408 5.37496 11.5615 5.1607C11.952 5 12.4474 5 13.4375 5H15.5625C16.5526 5 17.0477 5 17.4382 5.1607C17.9589 5.37496 18.3725 5.78619 18.5881 6.30347C18.7499 6.69143 18.75 7.18301 18.75 8.16667M18.75 8.16667H20.875M20.875 8.16667H23" stroke="#A4A3A3" stroke-width="2" stroke-linecap="round" stroke-linejoin="round"/>
</svg>
